<?xml version="1.0" standalone="no"?><!DOCTYPE svg PUBLIC "-//W3C//DTD SVG 1.1//EN" "http://www.w3.org/Graphics/SVG/1.1/DTD/svg11.dtd"><svg width="110.6875" height="64" viewBox="0 0 110.6875 64" version="1.1" xmlns="http://www.w3.org/2000/svg" xmlns:xlink="http://www.w3.org/1999/xlink"><defs><style type="text/css"><![CDATA[

]]></style></defs><g class="transform-group"><g transform="scale(0.0625, 0.0625)"><path d="M867.633 604.914c5.097-6.448 7.512-10.216 10.6-13.306 97.538-97.587 195.189-195.053 292.664-292.697 14.449-14.472 30.986-22.377 51.642-19.593 22.567 3.040 38.257 15.433 46.553 36.514 8.176 20.777 4.24 40.026-9.321 57.418-2.936 3.761-6.495 7.056-9.889 10.448-111.715 111.683-223.44 223.359-335.178 335.027-31.033 31.010-62.811 30.937-93.979-0.208-112.307-112.226-224.543-224.527-336.954-336.642-16.784-16.737-25.36-35.648-19.36-59.474 10.647-42.257 61.746-58.043 94.323-29.010 8.648 7.704 16.544 16.249 24.753 24.44 91.378 91.307 182.758 182.606 274.065 273.985 3.080 3.080 5.383 6.937 10.079 13.096v0z" fill="#000000"></path></g></g></svg>