<?xml version="1.0" standalone="no"?><!DOCTYPE svg PUBLIC "-//W3C//DTD SVG 1.1//EN" "http://www.w3.org/Graphics/SVG/1.1/DTD/svg11.dtd"><svg width="110.6875" height="64" viewBox="0 0 110.6875 64" version="1.1" xmlns="http://www.w3.org/2000/svg" xmlns:xlink="http://www.w3.org/1999/xlink"><defs><style type="text/css"><![CDATA[

]]></style></defs><g class="transform-group"><g transform="scale(0.0625, 0.0625)"><path d="M900.759 417.549c-3.833 5.482-6.044 9.902-9.364 13.221-95.978 96.105-192.124 192.038-288.081 288.174-15.155 15.185-32.226 24.122-54.176 20.35-22.212-3.81-37.454-16.517-44.947-37.636-7.549-21.262-2.701-40.495 11.78-57.471 2.304-2.701 4.95-5.126 7.47-7.643 110.349-110.293 220.697-220.588 331.061-330.873 32.4-32.376 63.040-32.289 95.575 0.221 111.196 111.132 222.401 222.251 333.566 333.406 22.181 22.182 26.158 50.286 10.78 74.385-18.664 29.239-58.368 35.394-84.881 13.063-3.93-3.311-7.502-7.051-11.138-10.685-95.242-95.154-190.484-190.327-285.696-285.513-3.073-3.059-5.892-6.385-11.952-12.999v0z" fill="#000000"></path></g></g></svg>