<?xml version="1.0" standalone="no"?><!DOCTYPE svg PUBLIC "-//W3C//DTD SVG 1.1//EN" "http://www.w3.org/Graphics/SVG/1.1/DTD/svg11.dtd"><svg width="200" height="200" viewBox="0 0 200 200" version="1.1" xmlns="http://www.w3.org/2000/svg" xmlns:xlink="http://www.w3.org/1999/xlink"><defs><style type="text/css"><![CDATA[
@font-face { font-family: ifont; src: url("//at.alicdn.com/t/font_1442373896_4754455.eot?#iefix") format("embedded-opentype"), url("//at.alicdn.com/t/font_1442373896_4754455.woff") format("woff"), url("//at.alicdn.com/t/font_1442373896_4754455.ttf") format("truetype"), url("//at.alicdn.com/t/font_1442373896_4754455.svg#ifont") format("svg"); }

]]></style></defs><g class="transform-group"><g transform="scale(0.1953125, 0.1953125)"><path d="M870.4 178.688 153.6 178.688c-14.11584 0-25.6 10.121216-25.6 22.562816l0 487.354368c0 12.4416 11.48416 22.562816 25.6 22.562816l151.461888 0 0 134.144 30.72 0 0-0.03584L534.605824 711.168 870.4 711.168c14.11584 0 25.6-10.121216 25.6-22.562816L896 201.250816C896 188.809216 884.51584 178.688 870.4 178.688zM865.28 684.092416 519.168 684.092416l0 0.433152L335.781888 808.221696 335.781888 684.188672 329.216 684.188672l0-0.095232L158.72 684.09344 158.72 205.763584l706.56 0L865.28 684.092416z" fill="#000000"></path></g></g></svg>