<?xml version="1.0" standalone="no"?><!DOCTYPE svg PUBLIC "-//W3C//DTD SVG 1.1//EN" "http://www.w3.org/Graphics/SVG/1.1/DTD/svg11.dtd"><svg width="200" height="200" viewBox="0 0 200 200" version="1.1" xmlns="http://www.w3.org/2000/svg" xmlns:xlink="http://www.w3.org/1999/xlink"><defs><style type="text/css"><![CDATA[
@font-face { font-family: ifont; src: url("//at.alicdn.com/t/font_1442373896_4754455.eot?#iefix") format("embedded-opentype"), url("//at.alicdn.com/t/font_1442373896_4754455.woff") format("woff"), url("//at.alicdn.com/t/font_1442373896_4754455.ttf") format("truetype"), url("//at.alicdn.com/t/font_1442373896_4754455.svg#ifont") format("svg"); }

]]></style></defs><g class="transform-group"><g transform="scale(0.1953125, 0.1953125)"><path d="M767.25 215.5m-100 0a100 100 0 1 0 200 0 100 100 0 1 0-200 0ZM881.25 492.5m-90 0a90 90 0 1 0 180 0 90 90 0 1 0-180 0ZM760.25 773.5m-80 0a80 80 0 1 0 160 0 80 80 0 1 0-160 0ZM482.75 880.5m-70 0a70 70 0 1 0 140 0 70 70 0 1 0-140 0ZM210.75 760.5m-60 0a60 60 0 1 0 120 0 60 60 0 1 0-120 0ZM102.75 488.5m-50 0a50 50 0 1 0 100 0 50 50 0 1 0-100 0ZM219.75 214.5m-40 0a40 40 0 1 0 80 0 40 40 0 1 0-80 0ZM483.75 103.5m-30 0a30 30 0 1 0 60 0 30 30 0 1 0-60 0Z" fill="#000000"></path></g></g></svg>