<?xml version="1.0" standalone="no"?><!DOCTYPE svg PUBLIC "-//W3C//DTD SVG 1.1//EN" "http://www.w3.org/Graphics/SVG/1.1/DTD/svg11.dtd"><svg width="200" height="200" viewBox="0 0 200 200" version="1.1" xmlns="http://www.w3.org/2000/svg" xmlns:xlink="http://www.w3.org/1999/xlink"><defs><style type="text/css"><![CDATA[

]]></style></defs><g class="transform-group"><g transform="scale(0.1953125, 0.1953125)"><path d="M139.636364 279.272727C216.755402 279.272727 279.272727 216.755402 279.272727 139.636364 279.272727 62.517326 216.755402 0 139.636364 0 62.517326 0 0 62.517326 0 139.636364 0 216.755402 62.517326 279.272727 139.636364 279.272727ZM139.636364 232.727273C191.049056 232.727273 232.727273 191.049055 232.727273 139.636364 232.727273 88.223672 191.049056 46.545455 139.636364 46.545455 88.223672 46.545455 46.545455 88.223672 46.545455 139.636364 46.545455 191.049055 88.223672 232.727273 139.636364 232.727273ZM139.636364 651.636364C216.755402 651.636364 279.272727 589.119039 279.272727 512 279.272727 434.880961 216.755402 372.363636 139.636364 372.363636 62.517326 372.363636 0 434.880961 0 512 0 589.119039 62.517326 651.636364 139.636364 651.636364ZM139.636364 605.090909C191.049056 605.090909 232.727273 563.412692 232.727273 512 232.727273 460.587308 191.049056 418.909091 139.636364 418.909091 88.223672 418.909091 46.545455 460.587308 46.545455 512 46.545455 563.412692 88.223672 605.090909 139.636364 605.090909ZM139.636364 1024C216.755402 1024 279.272727 961.482675 279.272727 884.363636 279.272727 807.244598 216.755402 744.727273 139.636364 744.727273 62.517326 744.727273 0 807.244598 0 884.363636 0 961.482675 62.517326 1024 139.636364 1024ZM139.636364 977.454545C191.049056 977.454545 232.727273 935.776328 232.727273 884.363636 232.727273 832.950945 191.049056 791.272727 139.636364 791.272727 88.223672 791.272727 46.545455 832.950945 46.545455 884.363636 46.545455 935.776328 88.223672 977.454545 139.636364 977.454545ZM884.363636 1024C961.482675 1024 1024 961.482675 1024 884.363636 1024 807.244598 961.482675 744.727273 884.363636 744.727273 807.244598 744.727273 744.727273 807.244598 744.727273 884.363636 744.727273 961.482675 807.244598 1024 884.363636 1024ZM884.363636 977.454545C935.776328 977.454545 977.454545 935.776328 977.454545 884.363636 977.454545 832.950945 935.776328 791.272727 884.363636 791.272727 832.950945 791.272727 791.272727 832.950945 791.272727 884.363636 791.272727 935.776328 832.950945 977.454545 884.363636 977.454545ZM512 1024C589.119039 1024 651.636364 961.482675 651.636364 884.363636 651.636364 807.244598 589.119039 744.727273 512 744.727273 434.880961 744.727273 372.363636 807.244598 372.363636 884.363636 372.363636 961.482675 434.880961 1024 512 1024ZM512 977.454545C563.412692 977.454545 605.090909 935.776328 605.090909 884.363636 605.090909 832.950945 563.412692 791.272727 512 791.272727 460.587308 791.272727 418.909091 832.950945 418.909091 884.363636 418.909091 935.776328 460.587308 977.454545 512 977.454545ZM512 651.636364C589.119039 651.636364 651.636364 589.119039 651.636364 512 651.636364 434.880961 589.119039 372.363636 512 372.363636 434.880961 372.363636 372.363636 434.880961 372.363636 512 372.363636 589.119039 434.880961 651.636364 512 651.636364ZM512 605.090909C563.412692 605.090909 605.090909 563.412692 605.090909 512 605.090909 460.587308 563.412692 418.909091 512 418.909091 460.587308 418.909091 418.909091 460.587308 418.909091 512 418.909091 563.412692 460.587308 605.090909 512 605.090909ZM884.363636 651.636364C961.482675 651.636364 1024 589.119039 1024 512 1024 434.880961 961.482675 372.363636 884.363636 372.363636 807.244598 372.363636 744.727273 434.880961 744.727273 512 744.727273 589.119039 807.244598 651.636364 884.363636 651.636364ZM884.363636 605.090909C935.776328 605.090909 977.454545 563.412692 977.454545 512 977.454545 460.587308 935.776328 418.909091 884.363636 418.909091 832.950945 418.909091 791.272727 460.587308 791.272727 512 791.272727 563.412692 832.950945 605.090909 884.363636 605.090909ZM884.363636 279.272727C961.482675 279.272727 1024 216.755402 1024 139.636364 1024 62.517326 961.482675 0 884.363636 0 807.244598 0 744.727273 62.517326 744.727273 139.636364 744.727273 216.755402 807.244598 279.272727 884.363636 279.272727ZM884.363636 232.727273C935.776328 232.727273 977.454545 191.049055 977.454545 139.636364 977.454545 88.223672 935.776328 46.545455 884.363636 46.545455 832.950945 46.545455 791.272727 88.223672 791.272727 139.636364 791.272727 191.049055 832.950945 232.727273 884.363636 232.727273ZM512 279.272727C589.119039 279.272727 651.636364 216.755402 651.636364 139.636364 651.636364 62.517326 589.119039 0 512 0 434.880961 0 372.363636 62.517326 372.363636 139.636364 372.363636 216.755402 434.880961 279.272727 512 279.272727ZM512 232.727273C563.412692 232.727273 605.090909 191.049055 605.090909 139.636364 605.090909 88.223672 563.412692 46.545455 512 46.545455 460.587308 46.545455 418.909091 88.223672 418.909091 139.636364 418.909091 191.049055 460.587308 232.727273 512 232.727273Z" fill="#000000"></path></g></g></svg>