<?xml version="1.0" standalone="no"?><!DOCTYPE svg PUBLIC "-//W3C//DTD SVG 1.1//EN" "http://www.w3.org/Graphics/SVG/1.1/DTD/svg11.dtd"><svg width="200" height="200" viewBox="0 0 200 200" version="1.1" xmlns="http://www.w3.org/2000/svg" xmlns:xlink="http://www.w3.org/1999/xlink"><defs><style type="text/css"><![CDATA[
@font-face { font-family: ifont; src: url("//at.alicdn.com/t/font_1442373896_4754455.eot?#iefix") format("embedded-opentype"), url("//at.alicdn.com/t/font_1442373896_4754455.woff") format("woff"), url("//at.alicdn.com/t/font_1442373896_4754455.ttf") format("truetype"), url("//at.alicdn.com/t/font_1442373896_4754455.svg#ifont") format("svg"); }

]]></style></defs><g class="transform-group"><g transform="scale(0.1953125, 0.1953125)"><path d="M308.988 62v0zM337.111 62v0zM365.234 62v0zM393.357 62v0zM421.48 62v0zM449.603 62v0zM477.725 62v0zM505.848 62v0zM533.971 62v0zM562.094 62v0zM590.217 62v0zM618.34 62v0zM646.462 62v0zM674.585 62v0zM702.708 62v0zM730.831 62v0zM280.866 90.123v0zM280.866 118.245v0zM280.866 146.368v0zM280.866 174.492v0zM280.866 202.615v0zM280.866 230.737v0zM280.866 258.86v0zM280.866 286.982v0zM280.866 315.105v0zM280.866 343.228v0zM280.866 371.352v0zM280.866 399.474v0zM280.866 427.597v0zM280.866 455.719v0zM280.866 483.842v0zM280.866 511.965v0zM280.866 540.088v0zM280.866 568.211v0zM280.866 596.334v0zM280.866 624.456v0zM280.866 652.579v0zM280.866 680.701v0zM280.866 708.825v0zM280.866 736.947v0zM280.866 765.071v0zM280.866 793.193v0zM280.866 821.316v0zM280.866 849.438v0zM280.866 877.562v0zM280.866 905.684v0zM280.866 933.808v0zM458.495 328.918h-177.629l230.965-266.918 230.488 266.322h-177.033c0 4.048-0.596 7.5-0.596 10.835q0 295.373 0 590.865c0 23.812-8.453 31.788-31.788 31.788h-45.717c-0.928 0.121-2.001 0.19-3.088 0.19-13.873 0-25.121-11.247-25.121-25.121 0-1.201 0.084-2.383 0.248-3.538q-0.014-157.018-0.014-314.168 0-140.484 0-280.849c-0.237-2.977-0.476-5.833-0.713-9.405z" fill="#000000"></path></g></g></svg>