<?xml version="1.0" standalone="no"?><!DOCTYPE svg PUBLIC "-//W3C//DTD SVG 1.1//EN" "http://www.w3.org/Graphics/SVG/1.1/DTD/svg11.dtd"><svg width="200" height="200" viewBox="0 0 200 200" version="1.1" xmlns="http://www.w3.org/2000/svg" xmlns:xlink="http://www.w3.org/1999/xlink"><defs><style type="text/css"><![CDATA[

]]></style></defs><g class="transform-group"><g transform="scale(0.1953125, 0.1953125)"><path d="M872.802928 755.99406 872.864326 755.99406 872.864326 755.624646ZM165.847747 442.249403c-36.401048 0-65.924455 28.551266-65.924455 63.803141 0 35.266202 29.523407 63.863517 65.924455 63.863517 36.429701 0 65.954131-28.597315 65.954131-63.863517C231.801878 470.831368 202.277448 442.249403 165.847747 442.249403M363.666138 239.675708l527.454994 0c18.22713 0 32.95353-14.284331 32.95353-31.894408 0-17.640776-14.7264-31.93841-32.95353-31.93841L363.666138 175.842891c-18.200524 0-32.985252 14.297634-32.985252 31.93841C330.680886 225.391377 345.465614 239.675708 363.666138 239.675708M165.847747 740.551346c-36.401048 0-65.924455 28.567639-65.924455 63.819514s29.523407 63.84919 65.924455 63.84919c36.429701 0 65.954131-28.596292 65.954131-63.84919S202.277448 740.551346 165.847747 740.551346M891.121132 474.15916 363.666138 474.15916c-18.200524 0-32.985252 14.283308-32.985252 31.894408 0 17.655102 14.784728 31.939433 32.985252 31.939433l527.454994 0c18.22713 0 32.95353-14.283308 32.95353-31.939433C924.074661 488.442468 909.349285 474.15916 891.121132 474.15916M165.847747 143.933133c-36.401048 0-65.924455 28.595268-65.924455 63.848167 0 35.222199 29.523407 63.804165 65.924455 63.804165 36.429701 0 65.954131-28.581965 65.954131-63.804165C231.801878 172.528402 202.277448 143.933133 165.847747 143.933133M891.121132 772.47543 363.666138 772.47543c-18.200524 0-32.985252 14.254655-32.985252 31.895431s14.784728 31.895431 32.985252 31.895431l527.454994 0c18.22713 0 32.95353-14.254655 32.95353-31.895431S909.349285 772.47543 891.121132 772.47543" fill="#000000"></path></g></g></svg>