<?xml version="1.0" standalone="no"?><!DOCTYPE svg PUBLIC "-//W3C//DTD SVG 1.1//EN" "http://www.w3.org/Graphics/SVG/1.1/DTD/svg11.dtd"><svg width="257.2265625" height="200" viewBox="0 0 257.2265625 200" version="1.1" xmlns="http://www.w3.org/2000/svg" xmlns:xlink="http://www.w3.org/1999/xlink"><defs><style type="text/css"><![CDATA[
@font-face { font-family: ifont; src: url("//at.alicdn.com/t/font_1442373896_4754455.eot?#iefix") format("embedded-opentype"), url("//at.alicdn.com/t/font_1442373896_4754455.woff") format("woff"), url("//at.alicdn.com/t/font_1442373896_4754455.ttf") format("truetype"), url("//at.alicdn.com/t/font_1442373896_4754455.svg#ifont") format("svg"); }

]]></style></defs><g class="transform-group"><g transform="scale(0.1953125, 0.1953125)"><path d="M954.107938 84.520635 954.107938 253.561905C954.107938 300.217295 991.888662 338.08254 1038.628571 338.08254L1207.669843 338.08254 1207.669843 929.726986 108.901587 929.726986 108.901587 84.520635 954.107938 84.520635 954.107938 84.520635ZM1038.628571 0 24.380952 0 24.380952 1014.247619 1292.190476 1014.247619 1292.190476 253.561905 1038.628571 253.561905 1038.628571 0 1038.628571 0 1038.628571 0ZM1292.190476 0 1123.149205 0 1123.149205 169.04127 1292.190476 169.04127 1292.190476 0 1292.190476 0ZM193.422222 507.12381 277.942857 507.12381 277.942857 845.206348 362.463492 845.206348 362.463492 507.12381 446.984127 507.12381 446.984127 422.603175 193.422222 422.603175 193.422222 507.12381 193.422222 507.12381ZM531.504762 507.12381 700.546033 507.12381 700.546033 591.644443 531.504762 591.644443 531.504762 676.165081 531.504762 760.685714 531.504762 845.206348 616.025395 845.206348 785.066667 845.206348 785.066667 760.685714 785.066667 676.165081 785.066667 591.644443 785.066667 507.12381 785.066667 422.603175 531.504762 422.603175 531.504762 507.12381 531.504762 507.12381ZM700.546033 760.685714 616.025395 760.685714 616.025395 676.165081 700.546033 676.165081 700.546033 760.685714 700.546033 760.685714ZM954.107938 591.644443 954.107938 422.603175 869.5873 422.603175 869.5873 845.206348 954.107938 845.206348 1038.628571 845.206348 1123.149205 845.206348 1123.149205 760.685714 1123.149205 676.165081 1123.149205 591.644443 954.107938 591.644443 954.107938 591.644443ZM1038.628571 760.685714 954.107938 760.685714 954.107938 676.165081 1038.628571 676.165081 1038.628571 760.685714 1038.628571 760.685714Z" fill="#000000"></path></g></g></svg>