<?xml version="1.0" standalone="no"?><!DOCTYPE svg PUBLIC "-//W3C//DTD SVG 1.1//EN" "http://www.w3.org/Graphics/SVG/1.1/DTD/svg11.dtd"><svg width="228.7109375" height="200" viewBox="0 0 228.7109375 200" version="1.1" xmlns="http://www.w3.org/2000/svg" xmlns:xlink="http://www.w3.org/1999/xlink"><defs><style type="text/css"><![CDATA[
@font-face { font-family: ifont; src: url("//at.alicdn.com/t/font_1442373896_4754455.eot?#iefix") format("embedded-opentype"), url("//at.alicdn.com/t/font_1442373896_4754455.woff") format("woff"), url("//at.alicdn.com/t/font_1442373896_4754455.ttf") format("truetype"), url("//at.alicdn.com/t/font_1442373896_4754455.svg#ifont") format("svg"); }

]]></style></defs><g class="transform-group"><g transform="scale(0.1953125, 0.1953125)"><path d="M4.6e-05 512q0-74.276571 29.147429-142.006857t78.006857-116.553143 116.553143-78.006857 142.006857-29.147429l438.857143 0q74.276571 0 142.006857 29.147429t116.553143 78.006857 78.006857 116.553143 29.147429 142.006857-29.147429 142.006857-78.006857 116.553143-116.553143 78.006857-142.006857 29.147429l-438.857143 0q-74.276571 0-142.006857-29.147429t-116.553143-78.006857-78.006857-116.553143-29.147429-142.006857zM804.571474 804.571429q59.428571 0 113.444571-23.149714t93.44-62.573714 62.573714-93.44 23.149714-113.444571-23.149714-113.444571-62.573714-93.44-93.44-62.573714-113.444571-23.149714-113.444571 23.149714-93.44 62.573714-62.573714 93.44-23.149714 113.444571 23.149714 113.444571 62.573714 93.44 93.44 62.573714 113.444571 23.149714z" fill="#000000"></path></g></g></svg>